<svg xmlns="http://www.w3.org/2000/svg" id="Vector" viewBox="0 0 1200 1200"><defs><style>.cls-1{fill:#d0d0d0}.cls-2{fill:#dedede}.cls-3{fill:#f3f3f3}.cls-4{fill:#de8e68}.cls-5{fill:#dfdfdf}.cls-6{fill:#56cad8}.cls-7{fill:#fcc486}.cls-8{fill:#fed385}.cls-9{fill:#fd8369}.cls-10{fill:#fed892}.cls-11{fill:#74d5de}</style></defs><title>Artboard 1</title><rect width="467.4" height="701.58" x="211.6" y="325.89" class="cls-1" rx="64.48" ry="64.48" transform="translate(-115.81 92.43) rotate(-10.49)"/><rect width="333.83" height="701.58" x="212.72" y="338.05" class="cls-1" transform="translate(-119.12 80.67) rotate(-10.49)"/><rect width="514.9" height="701.58" x="182.21" y="308.56" class="cls-2" rx="64.48" ry="64.48" transform="translate(-152.77 132.98) rotate(-14.68)"/><rect width="367.75" height="701.58" x="184.61" y="327.21" class="cls-2" transform="translate(-159.83 115.55) rotate(-14.68)"/><rect width="49" height="701.58" x="557.32" y="271.31" class="cls-3" transform="matrix(0.97, -0.25, 0.25, 0.97, -138.69, 167.8)"/><rect width="416.01" height="185" x="192.37" y="401.62" class="cls-3" transform="translate(-112.17 117.63) rotate(-14.68)"/><rect width="416.01" height="185" x="192.37" y="401.62" class="cls-3" transform="translate(-112.17 117.63) rotate(-14.68)"/><rect width="159.46" height="97.65" x="290.31" y="903.27" class="cls-3" transform="translate(-229.25 124.89) rotate(-14.68)"/><path d="M901,512.69c3.7,1.68,12.45,8.4,15.81,12.27,3.87-1.85,70.12-43.21,79.71-42.71s4.54,19.5,4.54,21.35-79.91,64.07-92.93,64.07-30.33-28.25-30.33-29.93S901,512.69,901,512.69Z" class="cls-4"/><path d="M1036.5,349.28l-9.84-1.4-20-2.83-2.83,20-84,593.6-5.22,36.88a20.18,20.18,0,0,0,17.15,22.8l9.85,1.4a20.18,20.18,0,0,0,22.8-17.16l5.22-36.87,84-593.6,2.83-20Z" class="cls-5"/><polygon points="1040.88 282.86 1006.68 345.05 1056.48 352.1 1040.88 282.86" class="cls-3"/><polygon points="1046.02 305.68 1040.88 282.86 1029.61 303.35 1046.02 305.68" class="cls-5"/><rect width="50.3" height="18.06" x="919.17" y="956.07" class="cls-3" transform="translate(144.56 -122.81) rotate(8.06)"/><rect width="24.24" height="14.61" x="840.05" y="995.14" class="cls-4"/><rect width="22.22" height="14.61" x="898.97" y="948.42" class="cls-4" transform="translate(-398.97 1123.14) rotate(-53.69)"/><path d="M748.2,685s-15.85,142.2-10.31,158.12,162,119.76,162,119.76l14.54-19.38L796.06,821.65c5.87-4.5,28.92-60.91,29.51-65.76s-17.07-80-17.07-80Z" class="cls-6"/><path d="M844.71,483.16c12.62-19.48,62,20.9,63.32,29.36s-18.88,41.77-34.75,40.93S837.36,494.5,844.71,483.16Z" class="cls-7"/><path d="M810.59,452.79c96.24,0,70.34,197.48,68.87,213.37C872.1,678.81,755.24,692.7,748.2,685,745.26,662.92,719.65,452.79,810.59,452.79Z" class="cls-8"/><path d="M801.68,462.5c0,5.58,30.9,6.77,30.9,0V424.55h-30.9Z" class="cls-4"/><ellipse cx="821.82" cy="408.31" class="cls-4" rx="27.68" ry="37.2" transform="matrix(0.93, -0.37, 0.37, 0.93, -92.56, 330.73)"/><ellipse cx="797.11" cy="421.56" class="cls-4" rx="6.2" ry="8.88" transform="translate(-96.4 542.95) rotate(-35.61)"/><path d="M771.13,403.75c0-5.16,4.81-10.83,5.72-17.31.47-3.28-.55-16.94,3.28-21.56,8-9.57,12.66-7.61,18.75-9.84,10.61-3.88,14.67-10.31,23.43-10.31,10,0,14,5.16,21.09,5.16,8.14,0,14.82-3.75,26.25-3.75,6.09,0,14.05,8,14.05,15,0,16.62-15.46,14.24-15.46,18.28,0,2.81.94,5,.94,8.91,0,5-6.56,8-10.31,8-11.42,0-12.94-1.39-12.94-1.39a53.56,53.56,0,0,0-8.6-12.44c-.46-.48-7.88,4.76-20,5.17-9.93.33-16.93,2.25-16.93,6.87,0,3.27,1.2,13,1.13,15.7s-1,4.5-1.65,4.5-1-.88-4.77-.88c-4.09,0-4.41,5-5.11,5C785.9,418.83,771.13,415.5,771.13,403.75Z" class="cls-9"/><path d="M769.83,545.68a9.92,9.92,0,0,0-3.71.72,1.31,1.31,0,0,0-1-.53c-3.27,0-34.25-1.15-37.52-.58,5.39-4.61,16.74-16.55,16.74-16.55l-25.6-30.6c-5.77,2.12-47.53,44.27-47.53,59.66,0,14.25,18.09,16.36,31.18,16.36,16.21,0,41.45-4.08,55-8,1.32,7.36,6.39,12.85,12.45,12.85,7.07,0,12.8-7.45,12.8-16.64S776.9,545.68,769.83,545.68Z" class="cls-4"/><path d="M779.13,474.15c16,17.74-27.92,66.75-35.86,66.75s-35.58-28.77-32.57-46.64S769.78,463.81,779.13,474.15Z" class="cls-10"/><polyline points="879.46 666.16 866.42 998.33 838.73 998.33 796.06 685.26" class="cls-11"/><polygon points="865.21 1006.07 865.21 1027.76 801.62 1027.76 801.62 1020.63 837.76 1006.07 865.21 1006.07"/><polygon points="920.67 949.08 935.6 958.09 919.2 1019.53 912.31 1017.69 906.29 968.72 920.67 949.08"/></svg>