<svg xmlns="http://www.w3.org/2000/svg" viewBox="0 0 622.3 747.71"><defs><style>.cls-1{fill:#f2f2f2}.cls-2{fill:#5fc5d1}.cls-3{fill:#6bd5e1}.cls-4,.cls-6,.cls-7{fill:none;stroke-linecap:round;stroke-linejoin:round}.cls-4{stroke:#fd8369;stroke-width:11px}.cls-5{fill:#a4a4a4}.cls-6,.cls-7{stroke:#ffd98e;stroke-width:5px}.cls-7{stroke-dasharray:16.09 16.09}</style></defs><title>map-colour</title><g id="Layer_2" data-name="Layer 2"><g id="vector"><path d="M543.78,173.61C604,239.28,636.62,327.13,616.2,394.7S522.33,509.29,462.1,570.55,354.86,707,279.64,735.09c-75.07,28.06-178.35,8.81-225.5-52.45C6.83,621.53,15.5,518.25,31.37,431s39.22-158.51,86.38-224.18C165.05,141.29,236.3,81.35,316.07,73S483.55,107.94,543.78,173.61Z" class="cls-1"/><polygon points="79.5 694.72 0 593.72 0 153.72 79.5 254.72 79.5 694.72" class="cls-2"/><polygon points="526.5 614.22 79.5 695.22 79.5 255.22 526.5 174.22 526.5 614.22" class="cls-3"/><polygon points="618.65 655.76 526.5 614.22 526.5 174.22 618.65 215.76 618.65 655.76" class="cls-2"/><line x1="393.13" x2="466.74" y1="454.45" y2="528.07" class="cls-4"/><line x1="393.13" x2="466.74" y1="528.07" y2="454.45" class="cls-4"/><path d="M291.69,0c-48.09,0-96.7,46.78,0,172C388.38,46.78,339.77,0,291.69,0Zm0,88.07a32.8,32.8,0,1,1,32.79-32.8A32.79,32.79,0,0,1,291.69,88.07Z" class="cls-5"/><path d="M132,245.71c-1.4,2.26-2.73,4.57-4,6.92" class="cls-6"/><path d="M121,267.13c-11.54,27.46-16.08,58.34-16.08,86.17,0,142.57,34.14,242.47,128.52,242.47,83.17,0,100.69-81.87,135.77-101.3" class="cls-7"/><path d="M376.65,491.41a30.26,30.26,0,0,1,7.91-1.05" class="cls-6"/></g></g></svg>